<svg width="161" height="80" viewBox="0 0 161 80" fill="none" xmlns="http://www.w3.org/2000/svg">
<path d="M12.3438 69.0769H22.3313C26.3768 69.0769 28.3976 67.314 28.3976 63.8373C28.3976 60.4483 26.3755 58.7758 22.3313 58.8195H12.3438V69.0769ZM22.2549 38.6993H12.3438V47.7402H22.2549C22.9458 47.7402 23.8619 47.9169 25.5693 46.421C26.3728 45.6731 26.8188 44.617 26.8188 43.2074C26.8188 40.4334 24.9266 38.9376 23.3758 38.8061L22.2549 38.6993ZM0.560547 79.996V27.8049H22.3313C22.8053 27.8049 23.3638 27.8459 24.0949 27.8911C25.3998 28.0574 26.6933 28.3072 27.9678 28.6391C29.7058 29.0516 31.3842 29.6927 32.9614 30.5458C34.5391 31.5324 35.8783 32.8713 36.8785 34.4623C38.0761 36.3617 38.6905 38.5845 38.6421 40.8443C38.5979 46.7004 36.1432 49.9142 33.9497 51.3237C32.4031 52.4661 31.4992 52.7744 31.1978 52.7744C31.9549 52.9965 32.6893 53.2925 33.3914 53.6579C34.4277 54.2333 35.4334 54.8643 36.4044 55.5484C39.1163 57.3565 40.8237 60.6564 40.8237 64.7496C40.8237 74.922 33.9377 80.0001 20.1658 79.9837L0.560547 79.996Z" fill="white"/>
<path d="M93.8017 41.7812H82.0105V79.9959H93.8017V41.7812Z" fill="white"/>
<path d="M49.2642 0V33.7681H61.0553V12.0615H135.608V33.7681H147.399V0H49.2642Z" fill="white"/>
<path d="M115.834 41.7812H104.042V79.9959H115.834V41.7812Z" fill="white"/>
<path d="M147.68 41.7812L141.481 51.1592L135.33 41.7812H122.547L135.157 60.8003L122.547 79.9959H135.33L141.481 70.6179L147.68 79.9959H160.464L148.022 60.8003L160.464 41.7812H147.68Z" fill="white"/>
<path d="M81.1948 26.9014C81.1914 26.0034 81.368 25.1142 81.7133 24.2887C82.0589 23.4633 82.5659 22.7187 83.2036 22.1015C83.8081 21.4529 84.5367 20.9387 85.344 20.5908C86.1513 20.2429 87.0199 20.069 87.8958 20.0796C88.7779 20.0686 89.6526 20.2424 90.4665 20.5901C91.2802 20.9378 92.016 21.4522 92.6284 22.1015C93.2556 22.7301 93.7538 23.4804 94.0939 24.3084C94.4341 25.1367 94.6093 26.0257 94.6093 26.9239C94.6093 27.8221 94.4341 28.7114 94.0939 29.5394C93.7538 30.3675 93.2556 31.1178 92.6284 31.7466C92.016 32.3959 91.2802 32.9101 90.4665 33.2578C89.6526 33.6055 88.7779 33.7793 87.8958 33.7685C87.0199 33.7791 86.1513 33.6049 85.344 33.257C84.5367 32.9092 83.8081 32.3949 83.2036 31.7466C82.5619 31.1228 82.0525 30.371 81.707 29.5374C81.3614 28.7039 81.187 27.8067 81.1948 26.9014Z" fill="white"/>
<path d="M103.226 26.9014C103.223 26.0034 103.399 25.1141 103.745 24.2887C104.09 23.4632 104.597 22.7187 105.235 22.1014C105.839 21.4529 106.568 20.9387 107.375 20.5908C108.183 20.2429 109.051 20.069 109.927 20.0796C110.809 20.0691 111.683 20.2433 112.496 20.591C113.309 20.9387 114.044 21.4527 114.656 22.1014C115.283 22.73 115.781 23.4803 116.122 24.3084C116.462 25.1366 116.637 26.0257 116.637 26.9239C116.637 27.8221 116.462 28.7114 116.122 29.5394C115.781 30.3675 115.283 31.1178 114.656 31.7466C114.043 32.3958 113.308 32.9101 112.494 33.2578C111.68 33.6055 110.805 33.7792 109.923 33.7684C109.047 33.779 108.179 33.6049 107.371 33.257C106.564 32.9091 105.835 32.3949 105.231 31.7466C104.589 31.1228 104.08 30.371 103.734 29.5374C103.389 28.7039 103.214 27.8067 103.222 26.9014" fill="white"/>
<path d="M61.0553 47.9006V41.7814H49.2642V80.0001H61.0553V64.2442C61.0553 58.8154 63.1163 50.5306 75 52.7867V41.6047C62.1442 39.85 61.0553 47.9006 61.0553 47.9006Z" fill="white"/>
</svg>
